<svg width="152" height="40" viewBox="0 0 152 40" fill="none" xmlns="http://www.w3.org/2000/svg">
<path d="M0.60152 4.49511C0.223459 4.87829 0 5.47296 0 6.24304V33.757C0 34.5283 0.223459 35.1217 0.60152 35.5049L0.697659 35.5944L16.7932 20.1816V20V19.8184L0.697659 4.4043L0.60152 4.49511Z" fill="url(#paint0_linear_1269_17384)"/>
<path d="M22.1592 25.3222L16.7949 20.1829V20.0013V19.8197L22.1605 14.6816L22.2814 14.7476L28.6382 18.2061C30.4545 19.1939 30.4545 20.8099 28.6382 21.799L22.2814 25.2575L22.1592 25.3222Z" fill="url(#paint1_linear_1269_17384)"/>
<path d="M22.281 25.255L16.7945 20L0.601562 35.5049C1.20048 36.112 2.18786 36.1866 3.30126 35.5808L22.281 25.255Z" fill="url(#paint2_linear_1269_17384)"/>
<path d="M22.2806 14.744L3.30223 4.41823C2.18884 3.81237 1.20146 3.88826 0.602539 4.49412L16.7942 19.999L22.2806 14.744Z" fill="url(#paint3_linear_1269_17384)"/>
<path opacity="0.2" d="M22.1601 25.1387L3.30256 35.3985C2.24762 35.9721 1.30442 35.9347 0.699001 35.4122L0.601562 35.5055L0.697701 35.5951C1.30312 36.1176 2.24632 36.1562 3.30126 35.5814L22.2797 25.2556L22.1601 25.1387Z" fill="black"/>
<path opacity="0.12" d="M0.60152 35.3241C0.223459 34.9409 0 34.3463 0 33.5762V33.7578C0 34.5279 0.223459 35.1226 0.60152 35.5057L0.698959 35.4124L0.60152 35.3241Z" fill="black"/>
<path opacity="0.12" d="M28.6379 21.6136L22.1602 25.138L22.281 25.2537L28.6379 21.7952C29.546 21.3013 29.9994 20.6507 29.9994 20C29.9228 20.5884 29.4602 21.1657 28.6379 21.6136Z" fill="black"/>
<path opacity="0.25" d="M3.30121 4.60048L28.6365 18.3848C29.4602 18.8327 29.9214 19.4099 29.998 19.9996C29.998 19.349 29.5446 18.6971 28.6365 18.2032L3.30121 4.41884C1.48496 3.43105 0 4.25089 0 6.24265V6.42553C0 4.43377 1.48626 3.61268 3.30121 4.60048Z" fill="white"/>
<path d="M46.4512 14.4375C46.6035 14.4766 46.7637 14.5059 46.9316 14.5254C47.1035 14.5449 47.2891 14.5547 47.4883 14.5547C48.1055 14.5547 48.6289 14.4023 49.0586 14.0977C49.4883 13.7969 49.8418 13.3574 50.1191 12.7793L53.5 5.73633H52.0293L50.207 9.67383C50.1367 9.82617 50.0703 9.98242 50.0078 10.1426C49.9453 10.3027 49.8906 10.4688 49.8438 10.6406H49.8145C49.7676 10.4688 49.7109 10.3027 49.6445 10.1426C49.582 9.98242 49.5137 9.82422 49.4395 9.66797L47.5996 5.73633H46.0293L49.0703 11.9473L49.1641 11.9531C48.8828 12.6055 48.6152 13.0078 48.3613 13.1602C48.1074 13.3164 47.7812 13.3945 47.3828 13.3945C47.2305 13.3945 47.0742 13.3848 46.9141 13.3652C46.7539 13.3457 46.6035 13.3203 46.4629 13.2891L46.4512 14.4375ZM54.2598 8.95898C54.2598 9.92773 54.6055 10.707 55.2969 11.2969C55.9922 11.8828 56.9316 12.1758 58.1152 12.1758C59.2285 12.1758 60.0781 11.9473 60.6641 11.4902C61.25 11.0293 61.543 10.5059 61.543 9.91992V9.86719H60.043V9.92578C60.0352 10.2539 59.8828 10.5215 59.5859 10.7285C59.293 10.9316 58.8008 11.0332 58.1094 11.0332C57.3125 11.0332 56.7246 10.8477 56.3457 10.4766C55.9668 10.1055 55.7773 9.61719 55.7773 9.01172V8.72461C55.7773 8.11914 55.9668 7.63086 56.3457 7.25977C56.7246 6.88867 57.3125 6.70312 58.1094 6.70312C58.8008 6.70312 59.293 6.80664 59.5859 7.01367C59.8828 7.2207 60.0352 7.48438 60.043 7.80469V7.86914H61.543V7.79883C61.5234 7.21289 61.2246 6.69336 60.6465 6.24023C60.0723 5.78711 59.2305 5.56055 58.1211 5.56055C56.9336 5.56055 55.9922 5.85547 55.2969 6.44531C54.6055 7.03125 54.2598 7.80664 54.2598 8.77148V8.95898ZM62.2559 6.87305H64.9336V12H66.4219V6.87305H69.0996V5.73633H62.2559V6.87305ZM70.0469 10.1602C70.0469 10.793 70.2949 11.2773 70.791 11.6133C71.291 11.9492 71.959 12.1172 72.7949 12.1172C73.5254 12.1172 74.1328 12.0234 74.6172 11.8359C75.1016 11.6484 75.4336 11.4258 75.6133 11.168C75.6289 11.3164 75.6641 11.4688 75.7188 11.625C75.7734 11.7812 75.832 11.9062 75.8945 12H77.3359V11.9062C77.2461 11.7422 77.1738 11.5469 77.1191 11.3203C77.0684 11.0938 77.043 10.8555 77.043 10.6055V7.68164C77.043 6.98633 76.7617 6.45898 76.1992 6.09961C75.6406 5.74023 74.8516 5.56055 73.832 5.56055C72.793 5.56055 71.9746 5.72852 71.377 6.06445C70.7832 6.39648 70.4863 6.86719 70.4863 7.47656V7.52344H71.957V7.4707C71.957 7.21289 72.1055 7.00781 72.4023 6.85547C72.7031 6.70312 73.1602 6.62695 73.7734 6.62695C74.4062 6.62695 74.8633 6.71289 75.1445 6.88477C75.4258 7.05664 75.5664 7.32227 75.5664 7.68164V8.10938H73.5625C72.4609 8.10938 71.5996 8.28516 70.9785 8.63672C70.3574 8.98828 70.0469 9.49609 70.0469 10.1602ZM71.5234 10.0605C71.5234 9.72852 71.7148 9.47266 72.0977 9.29297C72.4844 9.11328 73.0449 9.02344 73.7793 9.02344H75.5723V9.76172C75.5723 10.0938 75.3438 10.3926 74.8867 10.6582C74.4297 10.9238 73.8965 11.0566 73.2871 11.0566C72.6738 11.0566 72.2266 10.9746 71.9453 10.8105C71.6641 10.6465 71.5234 10.3965 71.5234 10.0605ZM79.0918 5.73633V12H80.5742V9.375H84.3594V12H85.8477V5.73633H84.3594V8.23828H80.5742V5.73633H79.0918ZM87.5215 8.95898C87.5215 9.92383 87.8809 10.7012 88.5996 11.291C89.3184 11.8809 90.2676 12.1758 91.4473 12.1758C92.627 12.1758 93.5762 11.8809 94.2949 11.291C95.0137 10.7012 95.373 9.92383 95.373 8.95898V8.77148C95.373 7.80664 95.0137 7.03125 94.2949 6.44531C93.5762 5.85547 92.627 5.56055 91.4473 5.56055C90.2676 5.56055 89.3184 5.85547 88.5996 6.44531C87.8809 7.03125 87.5215 7.80664 87.5215 8.77148V8.95898ZM89.0391 8.72461C89.0391 8.12695 89.2441 7.64453 89.6543 7.27734C90.0645 6.90625 90.6621 6.7207 91.4473 6.7207C92.2285 6.7207 92.8242 6.90625 93.2344 7.27734C93.6445 7.64453 93.8496 8.12695 93.8496 8.72461V9.00586C93.8496 9.60742 93.6445 10.0938 93.2344 10.4648C92.8281 10.832 92.2324 11.0156 91.4473 11.0156C90.6621 11.0156 90.0645 10.832 89.6543 10.4648C89.2441 10.0938 89.0391 9.60938 89.0391 9.01172V8.72461ZM97.041 12H101.412C102.178 12 102.764 11.8438 103.17 11.5312C103.576 11.2188 103.779 10.7812 103.779 10.2188C103.779 9.82031 103.654 9.5 103.404 9.25781C103.158 9.01172 102.834 8.85156 102.432 8.77734V8.75977C102.791 8.6582 103.068 8.49219 103.264 8.26172C103.463 8.02734 103.562 7.72852 103.562 7.36523C103.562 6.82617 103.369 6.41992 102.982 6.14648C102.596 5.87305 102.004 5.73633 101.207 5.73633H97.041V12ZM98.5117 8.31445V6.77344H101.061C101.416 6.77344 101.67 6.83594 101.822 6.96094C101.979 7.08594 102.057 7.26953 102.057 7.51172C102.057 7.76562 101.979 7.96289 101.822 8.10352C101.67 8.24414 101.416 8.31445 101.061 8.31445H98.5117ZM98.5117 10.9629V9.31641H101.236C101.6 9.31641 101.865 9.38867 102.033 9.5332C102.201 9.67773 102.285 9.87695 102.285 10.1309C102.285 10.3887 102.201 10.5918 102.033 10.7402C101.865 10.8887 101.6 10.9629 101.236 10.9629H98.5117ZM105.447 12H106.93L110.352 8.01562C110.449 7.89844 110.529 7.78516 110.592 7.67578C110.654 7.56641 110.711 7.45312 110.762 7.33594H110.791C110.787 7.45703 110.781 7.58984 110.773 7.73438C110.77 7.87891 110.768 8.01172 110.768 8.13281V12H112.256V5.73633H110.773L107.352 9.70898C107.254 9.82617 107.174 9.93945 107.111 10.0488C107.053 10.1582 106.996 10.2715 106.941 10.3887H106.906C106.91 10.2676 106.916 10.1348 106.924 9.99023C106.932 9.8418 106.936 9.70703 106.936 9.58594V5.73633H105.447V12ZM113.584 6.87305H116.262V12H117.75V6.87305H120.428V5.73633H113.584V6.87305ZM123.238 5.73633H121.756V12H125.734C126.539 12 127.154 11.8125 127.58 11.4375C128.01 11.0625 128.225 10.5449 128.225 9.88477C128.225 9.20117 128.01 8.67773 127.58 8.31445C127.154 7.94727 126.539 7.76367 125.734 7.76367H123.238V5.73633ZM125.547 8.84766C125.977 8.84766 126.281 8.93945 126.461 9.12305C126.641 9.30273 126.73 9.55273 126.73 9.87305C126.73 10.2051 126.641 10.4629 126.461 10.6465C126.281 10.8301 125.977 10.9219 125.547 10.9219H123.238V8.84766H125.547Z" fill="white"/>
<path d="M79.8004 23.8696C76.8663 23.8696 74.4748 26.1002 74.4748 29.1753C74.4748 32.2305 76.8663 34.4811 79.8004 34.4811C82.7346 34.4811 85.1261 32.2305 85.1261 29.1753C85.1261 26.1002 82.7346 23.8696 79.8004 23.8696ZM79.8004 32.3915C78.1924 32.3915 76.8051 31.0653 76.8051 29.1753C76.8051 27.2654 78.1924 25.9592 79.8004 25.9592C81.4085 25.9592 82.7945 27.2654 82.7945 29.1753C82.7945 31.0641 81.4085 32.3915 79.8004 32.3915ZM68.181 23.8696C65.2468 23.8696 62.8553 26.1002 62.8553 29.1753C62.8553 32.2305 65.2468 34.4811 68.181 34.4811C71.1152 34.4811 73.5067 32.2305 73.5067 29.1753C73.5079 26.1002 71.1152 23.8696 68.181 23.8696ZM68.181 32.3915C66.5729 32.3915 65.1869 31.0653 65.1869 29.1753C65.1869 27.2654 66.5742 25.9592 68.181 25.9592C69.7891 25.9592 71.1751 27.2654 71.1751 29.1753C71.1763 31.0641 69.7891 32.3915 68.181 32.3915ZM54.3609 25.4976V27.7482H59.7477C59.5868 29.0144 59.1651 29.9388 58.5214 30.5825C57.738 31.366 56.5116 32.2305 54.3609 32.2305C51.045 32.2305 48.4526 29.5571 48.4526 26.2412C48.4526 22.9252 51.045 20.2518 54.3609 20.2518C56.1499 20.2518 57.456 20.9554 58.4204 21.8598L60.0085 20.2717C58.6624 18.9855 56.8734 18 54.3609 18C49.8187 18 46 21.6977 46 26.2399C46 30.7821 49.8187 34.4798 54.3609 34.4798C56.8123 34.4798 58.6624 33.6764 60.1095 32.1681C61.5966 30.6811 62.0594 28.5902 62.0594 26.9023C62.0594 26.3796 62.0195 25.8968 61.9384 25.4951H54.3609V25.4976ZM110.884 27.2454C110.442 26.059 109.095 23.8684 106.342 23.8684C103.608 23.8684 101.338 26.0191 101.338 29.1741C101.338 32.1482 103.588 34.4798 106.604 34.4798C109.035 34.4798 110.442 32.9928 111.025 32.1282L109.216 30.9219C108.613 31.8064 107.789 32.389 106.604 32.389C105.417 32.389 104.574 31.8463 104.031 30.7809L111.126 27.8467L110.884 27.2454ZM103.648 29.0144C103.588 26.9647 105.236 25.9193 106.421 25.9193C107.346 25.9193 108.129 26.3809 108.391 27.0446L103.648 29.0144ZM97.8796 34.1592H100.211V18.5639H97.8796V34.1592ZM94.0609 25.0548H93.9811C93.4583 24.4322 92.4541 23.8684 91.1879 23.8684C88.5344 23.8684 86.1029 26.2 86.1029 29.194C86.1029 32.1681 88.5344 34.4798 91.1879 34.4798C92.4541 34.4798 93.4583 33.9172 93.9811 33.2735H94.0609V34.0369C94.0609 36.0667 92.9756 37.152 91.2265 37.152C89.7994 37.152 88.9149 36.1265 88.5531 35.2633L86.5234 36.1078C87.106 37.515 88.6541 39.2429 91.2265 39.2429C93.9599 39.2429 96.2715 37.6348 96.2715 33.7163V24.1902H94.0609V25.0548ZM91.3887 32.3915C89.7807 32.3915 88.4346 31.0454 88.4346 29.1953C88.4346 27.3265 89.7807 25.9592 91.3887 25.9592C92.9768 25.9592 94.2218 27.3253 94.2218 29.1953C94.2218 31.0441 92.9768 32.3915 91.3887 32.3915ZM121.805 18.5639H116.227V34.1592H118.554V28.2509H121.803C124.383 28.2509 126.919 26.3834 126.919 23.408C126.919 20.4327 124.384 18.5639 121.805 18.5639ZM121.864 26.0802H118.554V20.7346H121.864C123.605 20.7346 124.593 22.1755 124.593 23.408C124.593 24.6156 123.605 26.0802 121.864 26.0802ZM136.251 23.8409C134.566 23.8409 132.82 24.5832 132.098 26.2287L134.165 27.092C134.607 26.2287 135.429 25.948 136.292 25.948C137.496 25.948 138.72 26.6703 138.74 27.954V28.1149C138.318 27.8742 137.415 27.5124 136.312 27.5124C134.085 27.5124 131.817 28.7362 131.817 31.0242C131.817 33.1113 133.644 34.4549 135.69 34.4549C137.255 34.4549 138.117 33.7525 138.659 32.9304H138.739V34.1342H140.985V28.1549C140.985 25.3853 138.919 23.8409 136.251 23.8409ZM135.969 32.3877C135.207 32.3877 134.143 32.006 134.143 31.0641C134.143 29.8602 135.468 29.3986 136.61 29.3986C137.633 29.3986 138.115 29.6194 138.737 29.9201C138.558 31.3647 137.314 32.3877 135.969 32.3877ZM149.172 24.1815L146.503 30.9431H146.423L143.655 24.1815H141.147L145.3 33.6315L142.933 38.8886H145.36L151.761 24.1815H149.172ZM128.204 34.1592H130.532V18.5639H128.204V34.1592Z" fill="white"/>
<defs>
<linearGradient id="paint0_linear_1269_17384" x1="15.3662" y1="5.95292" x2="-5.49276" y2="27.7358" gradientUnits="userSpaceOnUse">
<stop stop-color="#00A0FF"/>
<stop offset="0.0066" stop-color="#00A1FF"/>
<stop offset="0.2601" stop-color="#00BEFF"/>
<stop offset="0.5122" stop-color="#00D2FF"/>
<stop offset="0.7604" stop-color="#00DFFF"/>
<stop offset="1" stop-color="#00E3FF"/>
</linearGradient>
<linearGradient id="paint1_linear_1269_17384" x1="31.0018" y1="20.0007" x2="-0.434273" y2="20.0007" gradientUnits="userSpaceOnUse">
<stop stop-color="#FFE000"/>
<stop offset="0.4087" stop-color="#FFBD00"/>
<stop offset="0.7754" stop-color="#FFA500"/>
<stop offset="1" stop-color="#FF9C00"/>
</linearGradient>
<linearGradient id="paint2_linear_1269_17384" x1="19.2992" y1="22.8554" x2="-8.98719" y2="52.3948" gradientUnits="userSpaceOnUse">
<stop stop-color="#FF3A44"/>
<stop offset="1" stop-color="#C31162"/>
</linearGradient>
<linearGradient id="paint3_linear_1269_17384" x1="-3.47533" y1="-4.66437" x2="9.15583" y2="8.52615" gradientUnits="userSpaceOnUse">
<stop stop-color="#32A071"/>
<stop offset="0.0685" stop-color="#2DA771"/>
<stop offset="0.4762" stop-color="#15CF74"/>
<stop offset="0.8009" stop-color="#06E775"/>
<stop offset="1" stop-color="#00F076"/>
</linearGradient>
</defs>
</svg>
