<svg width="18" height="22" viewBox="0 0 18 22" fill="none" xmlns="http://www.w3.org/2000/svg">
<path d="M15.0341 11.4052C15.045 10.5832 15.2702 9.7773 15.6888 9.06239C16.1075 8.34749 16.7058 7.74684 17.4283 7.31632C16.9694 6.68098 16.3639 6.15812 15.66 5.78927C14.956 5.42042 14.1731 5.21574 13.3733 5.19149C11.6672 5.01791 10.0132 6.18102 9.1438 6.18102C8.25758 6.18102 6.919 5.20872 5.47757 5.23747C4.54521 5.26666 3.63656 5.52946 2.84014 6.00024C2.04372 6.47102 1.3867 7.13373 0.933086 7.92381C-1.03186 11.2213 0.433813 16.0674 2.31606 18.7328C3.25779 20.038 4.3584 21.4959 5.79853 21.4442C7.20778 21.3875 7.73411 20.5732 9.4352 20.5732C11.1205 20.5732 11.6143 21.4442 13.0837 21.4113C14.5958 21.3875 15.5486 20.1003 16.4573 18.7828C17.1339 17.8528 17.6546 16.825 18 15.7374C17.1215 15.3772 16.3717 14.7744 15.8443 14.004C15.3169 13.2336 15.0351 12.3297 15.0341 11.4052V11.4052Z" fill="white"/>
<path d="M12.2585 3.43748C13.083 2.4781 13.4892 1.24499 13.3908 0C12.1311 0.128238 10.9676 0.711776 10.1319 1.63434C9.72334 2.08504 9.41041 2.60937 9.21103 3.17736C9.01164 3.74535 8.92971 4.34586 8.9699 4.94456C9.59997 4.95085 10.2233 4.81848 10.7929 4.55743C11.3625 4.29638 11.8636 3.91345 12.2585 3.43748Z" fill="white"/>
</svg>
