<svg width="65" height="14" viewBox="0 0 65 14" fill="none" xmlns="http://www.w3.org/2000/svg">
<path d="M20.6849 4.09202C18.8892 4.09202 17.4257 5.45707 17.4257 7.33897C17.4257 9.20865 18.8892 10.5859 20.6849 10.5859C22.4805 10.5859 23.944 9.20865 23.944 7.33897C23.944 5.45707 22.4805 4.09202 20.6849 4.09202ZM20.6849 9.30714C19.7008 9.30714 18.8518 8.49559 18.8518 7.33897C18.8518 6.17013 19.7008 5.3708 20.6849 5.3708C21.669 5.3708 22.5171 6.17013 22.5171 7.33897C22.5171 8.49483 21.669 9.30714 20.6849 9.30714ZM13.5741 4.09202C11.7785 4.09202 10.315 5.45707 10.315 7.33897C10.315 9.20865 11.7785 10.5859 13.5741 10.5859C15.3697 10.5859 16.8333 9.20865 16.8333 7.33897C16.834 5.45707 15.3697 4.09202 13.5741 4.09202ZM13.5741 9.30714C12.59 9.30714 11.7418 8.49559 11.7418 7.33897C11.7418 6.17013 12.5908 5.3708 13.5741 5.3708C14.5582 5.3708 15.4064 6.17013 15.4064 7.33897C15.4072 8.49483 14.5582 9.30714 13.5741 9.30714ZM5.11663 5.08832V6.46559H8.4132C8.31472 7.24049 8.05667 7.8062 7.66273 8.20014C7.18328 8.67959 6.43282 9.20866 5.11663 9.20866C3.08738 9.20866 1.50094 7.57259 1.50094 5.54334C1.50094 3.51409 3.08738 1.87802 5.11663 1.87802C6.21142 1.87802 7.01075 2.30861 7.60089 2.86211L8.57276 1.89024C7.749 1.10312 6.65422 0.5 5.11663 0.5C2.33692 0.5 0 2.76286 0 5.54258C0 8.32229 2.33692 10.5852 5.11663 10.5852C6.61681 10.5852 7.749 10.0935 8.6346 9.17048C9.54463 8.26045 9.82787 6.98091 9.82787 5.94797C9.82787 5.62808 9.80344 5.33263 9.75382 5.0868H5.11663V5.08832ZM39.707 6.15792C39.4367 5.43188 38.6122 4.09126 36.9272 4.09126C35.2545 4.09126 33.865 5.40745 33.865 7.33821C33.865 9.15827 35.2423 10.5852 37.0876 10.5852C38.5755 10.5852 39.4367 9.67512 39.7932 9.14605L38.6862 8.4078C38.3175 8.94908 37.8128 9.30561 37.0876 9.30561C36.3615 9.30561 35.8454 8.97351 35.5133 8.32153L39.8551 6.5259L39.707 6.15792ZM35.2789 7.24048C35.2423 5.98614 36.2508 5.34637 36.9761 5.34637C37.5418 5.34637 38.0213 5.62885 38.1816 6.035L35.2789 7.24048ZM31.7488 10.3889H33.1756V0.845078H31.7488V10.3889ZM29.4118 4.8173H29.363C29.0431 4.43634 28.4285 4.09126 27.6536 4.09126C26.0298 4.09126 24.5418 5.51815 24.5418 7.35042C24.5418 9.17048 26.0298 10.5852 27.6536 10.5852C28.4285 10.5852 29.0431 10.2408 29.363 9.8469H29.4118V10.3141C29.4118 11.5563 28.7476 12.2205 27.6773 12.2205C26.8039 12.2205 26.2626 11.5929 26.0412 11.0646L24.7991 11.5815C25.1556 12.4426 26.1031 13.5 27.6773 13.5C29.35 13.5 30.7647 12.5159 30.7647 10.1179V4.28823H29.4118V4.8173V4.8173ZM27.7765 9.30714C26.7925 9.30714 25.9687 8.48338 25.9687 7.35119C25.9687 6.20754 26.7925 5.3708 27.7765 5.3708C28.7484 5.3708 29.5103 6.20678 29.5103 7.35119C29.5103 8.48262 28.7484 9.30714 27.7765 9.30714ZM46.3902 0.845078H42.9768V10.3889H44.4006V6.77325H46.3894C47.9682 6.77325 49.5203 5.63037 49.5203 3.80955C49.5203 1.98872 47.969 0.845078 46.3902 0.845078ZM46.4268 5.44485H44.4006V2.17348H46.4268C47.4918 2.17348 48.0965 3.05526 48.0965 3.80955C48.0965 4.54857 47.4918 5.44485 46.4268 5.44485ZM55.2309 4.07446C54.1995 4.07446 53.1314 4.52872 52.6894 5.5357L53.9544 6.06401C54.2247 5.5357 54.7278 5.36393 55.2561 5.36393C55.9928 5.36393 56.7418 5.80597 56.754 6.59155V6.69004C56.4959 6.54269 55.9432 6.32129 55.2683 6.32129C53.9056 6.32129 52.5176 7.07024 52.5176 8.4704C52.5176 9.74765 53.6353 10.5699 54.8874 10.5699C55.8455 10.5699 56.373 10.1401 56.7044 9.63695H56.7532V10.3737H58.1282V6.71447C58.1282 5.01961 56.8639 4.07446 55.2309 4.07446ZM55.0584 9.30485C54.5919 9.30485 53.9407 9.07123 53.9407 8.49483C53.9407 7.7581 54.7515 7.47563 55.4508 7.47563C56.0768 7.47563 56.3715 7.61076 56.7525 7.79475C56.6425 8.67882 55.8814 9.30485 55.0584 9.30485ZM63.1379 4.28289L61.5049 8.42078H61.4561L59.762 4.28289H58.2274L60.769 10.066L59.3199 13.2832H60.8056L64.7229 4.28289H63.1379V4.28289ZM50.3067 10.3889H51.7313V0.845078H50.3067V10.3889Z" fill="white"/>
</svg>
