<svg width="54" height="12" viewBox="0 0 54 12" fill="none" xmlns="http://www.w3.org/2000/svg">
<path d="M5.66538 6.6397H2.26011L1.44234 9.0441H0L3.22542 0.148438H4.72396L7.94938 9.0441H6.48244L5.66538 6.6397ZM2.61279 5.53019H5.31203L3.9814 1.62803H3.94416L2.61279 5.53019Z" fill="white"/>
<path d="M14.9157 5.80051C14.9157 7.81596 13.8323 9.11084 12.1975 9.11084C11.7834 9.13241 11.3715 9.03742 11.0091 8.83675C10.6466 8.63607 10.3483 8.33782 10.1482 7.97614H10.1172V11.1885H8.78027V2.55734H10.0744V3.63606H10.099C10.3083 3.27612 10.6117 2.97941 10.9769 2.77751C11.3421 2.57561 11.7554 2.47607 12.1729 2.48948C13.826 2.48948 14.9157 3.79067 14.9157 5.80051ZM13.5415 5.80051C13.5415 4.48744 12.86 3.62417 11.8202 3.62417C10.7987 3.62417 10.1116 4.50562 10.1116 5.80051C10.1116 7.1073 10.7987 7.98245 11.8202 7.98245C12.86 7.98245 13.5415 7.12549 13.5415 5.80051Z" fill="white"/>
<path d="M22.0846 5.80051C22.0846 7.81595 21.0013 9.11084 19.3665 9.11084C18.9523 9.13241 18.5405 9.03742 18.178 8.83674C17.8156 8.63606 17.5172 8.33781 17.3171 7.97613H17.2862V11.1885H15.9492V2.55733H17.2433V3.63606H17.2679C17.4772 3.27611 17.7806 2.97941 18.1458 2.77751C18.511 2.57561 18.9244 2.47607 19.3418 2.48948C20.995 2.48948 22.0846 3.79066 22.0846 5.80051ZM20.7104 5.80051C20.7104 4.48743 20.029 3.62417 18.9892 3.62417C17.9677 3.62417 17.2806 4.50561 17.2806 5.80051C17.2806 7.10729 17.9677 7.98245 18.9892 7.98245C20.029 7.98245 20.7104 7.12548 20.7104 5.80051H20.7104Z" fill="white"/>
<path d="M26.8217 6.56543C26.9208 7.44759 27.7814 8.02679 28.9575 8.02679C30.0844 8.02679 30.8951 7.44756 30.8951 6.65215C30.8951 5.96168 30.4061 5.54825 29.2483 5.26492L28.0905 4.98719C26.4501 4.59263 25.6885 3.82871 25.6885 2.58908C25.6885 1.05424 27.0318 0 28.9392 0C30.827 0 32.1211 1.05424 32.1646 2.58908H30.815C30.7342 1.70134 29.9972 1.16548 28.9202 1.16548C27.8432 1.16548 27.1062 1.70764 27.1062 2.49674C27.1062 3.12565 27.577 3.49572 28.7284 3.77902L29.7127 4.01967C31.5457 4.4513 32.3072 5.18446 32.3072 6.48562C32.3072 8.14988 30.9759 9.19223 28.8584 9.19223C26.8772 9.19223 25.5395 8.17437 25.4531 6.56537L26.8217 6.56543Z" fill="white"/>
<path d="M35.1927 1.02539V2.56023H36.4313V3.61447H35.1927V7.18994C35.1927 7.74539 35.4407 8.00423 35.9851 8.00423C36.1322 8.00168 36.279 7.99139 36.4249 7.97343V9.02137C36.1801 9.06692 35.9313 9.08754 35.6823 9.08294C34.3637 9.08294 33.8494 8.58974 33.8494 7.33193V3.61447H32.9023V2.56023H33.8494V1.02539H35.1927Z" fill="white"/>
<path d="M37.1494 5.80144C37.1494 3.76082 38.3564 2.47852 40.2385 2.47852C42.127 2.47852 43.3284 3.76079 43.3284 5.80144C43.3284 7.84766 42.1333 9.12436 40.2385 9.12436C38.3444 9.12436 37.1494 7.84766 37.1494 5.80144ZM41.9661 5.80144C41.9661 4.40161 41.3219 3.57543 40.2385 3.57543C39.1552 3.57543 38.5117 4.40791 38.5117 5.80144C38.5117 7.20686 39.1552 8.02675 40.2385 8.02675C41.3219 8.02675 41.9661 7.20686 41.9661 5.80144H41.9661Z" fill="white"/>
<path d="M44.4307 2.55728H45.7058V3.66117H45.7367C45.823 3.3164 46.0259 3.01172 46.3112 2.79833C46.5965 2.58494 46.9469 2.47585 47.3034 2.48941C47.4575 2.48887 47.6111 2.50554 47.7615 2.53908V3.7843C47.567 3.72512 47.3641 3.69795 47.1608 3.70385C46.9666 3.69601 46.7729 3.73011 46.5932 3.80381C46.4134 3.87751 46.2518 3.98907 46.1195 4.13083C45.9871 4.27259 45.8872 4.44119 45.8264 4.62506C45.7657 4.80893 45.7456 5.0037 45.7676 5.19602V9.04291H44.4307L44.4307 2.55728Z" fill="white"/>
<path d="M53.9253 7.139C53.7454 8.31636 52.5939 9.12436 51.1207 9.12436C49.2259 9.12436 48.0498 7.86025 48.0498 5.83222C48.0498 3.79789 49.2322 2.47852 51.0645 2.47852C52.8665 2.47852 53.9997 3.71114 53.9997 5.67762V6.13373H49.3994V6.21418C49.3782 6.45287 49.4082 6.69332 49.4875 6.91958C49.5667 7.14583 49.6934 7.3527 49.8591 7.52645C50.0249 7.7002 50.2258 7.83685 50.4486 7.92733C50.6715 8.01781 50.9111 8.06004 51.1516 8.05123C51.4675 8.0807 51.7846 8.00784 52.0556 7.84348C52.3266 7.67912 52.5371 7.43204 52.6557 7.139L53.9253 7.139ZM49.4057 5.20331H52.6621C52.6741 4.9887 52.6414 4.77393 52.5661 4.57248C52.4908 4.37104 52.3745 4.18726 52.2244 4.0327C52.0744 3.87814 51.894 3.75611 51.6943 3.6743C51.4947 3.59248 51.2803 3.55262 51.0645 3.55724C50.8467 3.55595 50.6309 3.5976 50.4295 3.6798C50.228 3.76199 50.0449 3.8831 49.8907 4.03614C49.7364 4.18918 49.6142 4.37111 49.531 4.57144C49.4477 4.77177 49.4052 4.98652 49.4057 5.20332V5.20331Z" fill="white"/>
</svg>
