<svg width="52" height="6" viewBox="0 0 52 6" fill="none" xmlns="http://www.w3.org/2000/svg">
<path d="M0.266895 5.54361C0.363273 5.56801 0.464595 5.5863 0.570858 5.5985C0.679593 5.6107 0.796977 5.6168 0.923011 5.6168C1.31347 5.6168 1.64462 5.52166 1.91645 5.33138C2.18829 5.14354 2.41194 4.86911 2.5874 4.50807L4.72626 0.109774H3.79584L2.643 2.56872C2.59852 2.66386 2.55651 2.76144 2.51697 2.86146C2.47743 2.96147 2.44283 3.06515 2.41317 3.17248H2.39464C2.36498 3.06515 2.32915 2.96147 2.28714 2.86146C2.2476 2.76144 2.20435 2.66264 2.1574 2.56506L0.993442 0.109774H0L1.92387 3.98847L1.98318 3.99213C1.80525 4.39952 1.63597 4.65078 1.47534 4.74592C1.3147 4.84349 1.10835 4.89228 0.856287 4.89228C0.759909 4.89228 0.661059 4.88618 0.559738 4.87399C0.458416 4.86179 0.363273 4.84593 0.274309 4.82642L0.266895 5.54361Z" fill="white"/>
<path d="M5.20692 2.12231C5.20692 2.72729 5.42562 3.21395 5.86304 3.58231C6.30292 3.94822 6.89725 4.13118 7.64604 4.13118C8.35035 4.13118 8.88784 3.98847 9.25853 3.70306C9.62922 3.41521 9.81456 3.08832 9.81456 2.72241V2.68948H8.8656V2.72607C8.86066 2.93098 8.76428 3.09808 8.57647 3.22737C8.39112 3.35422 8.07975 3.41765 7.64233 3.41765C7.1382 3.41765 6.76628 3.30177 6.52657 3.07003C6.28685 2.83828 6.167 2.53335 6.167 2.15524V1.97594C6.167 1.59783 6.28685 1.2929 6.52657 1.06115C6.76628 0.829407 7.1382 0.713534 7.64233 0.713534C8.07975 0.713534 8.39112 0.778179 8.57647 0.907469C8.76428 1.03676 8.86066 1.20142 8.8656 1.40145V1.44171H9.81456V1.3978C9.8022 1.03188 9.61315 0.707436 9.24741 0.424461C8.88414 0.141487 8.35158 0 7.64975 0C6.89849 0 6.30292 0.184177 5.86304 0.552532C5.42562 0.918447 5.20692 1.40267 5.20692 2.00521V2.12231Z" fill="white"/>
<path d="M10.2656 0.81965H11.9596V4.02141H12.9011V0.81965H14.5952V0.109774H10.2656V0.81965Z" fill="white"/>
<path d="M15.1945 2.87243C15.1945 3.26762 15.3514 3.57011 15.6652 3.7799C15.9816 3.98969 16.4041 4.09459 16.933 4.09459C17.3951 4.09459 17.7794 4.03604 18.0858 3.91895C18.3923 3.80186 18.6023 3.66281 18.716 3.50181C18.7259 3.5945 18.7481 3.68964 18.7827 3.78722C18.8173 3.8848 18.8544 3.96286 18.8939 4.02141H19.8058V3.96286C19.749 3.8604 19.7033 3.73843 19.6687 3.59694C19.6365 3.45546 19.6205 3.30665 19.6205 3.15053V1.32461C19.6205 0.890393 19.4425 0.56107 19.0867 0.336642C18.7333 0.112214 18.2341 0 17.5891 0C16.9318 0 16.414 0.104896 16.0359 0.314687C15.6603 0.522039 15.4725 0.81599 15.4725 1.19654V1.22582H16.4029V1.19288C16.4029 1.03188 16.4968 0.90381 16.6846 0.808672C16.8749 0.713534 17.1641 0.665965 17.552 0.665965C17.9524 0.665965 18.2415 0.719633 18.4194 0.826968C18.5974 0.934303 18.6863 1.10018 18.6863 1.32461V1.59173H17.4186C16.7217 1.59173 16.1768 1.7015 15.7839 1.92105C15.3909 2.1406 15.1945 2.45773 15.1945 2.87243ZM16.1286 2.81023C16.1286 2.60288 16.2497 2.44309 16.4919 2.33088C16.7365 2.21866 17.0912 2.16256 17.5557 2.16256H18.69V2.62361C18.69 2.83096 18.5455 3.01758 18.2563 3.18346C17.9672 3.34934 17.6299 3.43228 17.2444 3.43228C16.8564 3.43228 16.5734 3.38105 16.3955 3.2786C16.2176 3.17614 16.1286 3.02002 16.1286 2.81023Z" fill="white"/>
<path d="M20.9166 0.109774V4.02141H21.8545V2.38211H24.2491V4.02141H25.1907V0.109774H24.2491V1.67223H21.8545V0.109774H20.9166Z" fill="white"/>
<path d="M26.2496 2.12231C26.2496 2.72485 26.477 3.21029 26.9317 3.57865C27.3864 3.947 27.9869 4.13118 28.7332 4.13118C29.4795 4.13118 30.08 3.947 30.5347 3.57865C30.9894 3.21029 31.2168 2.72485 31.2168 2.12231V2.00521C31.2168 1.40267 30.9894 0.918447 30.5347 0.552532C30.08 0.184177 29.4795 0 28.7332 0C27.9869 0 27.3864 0.184177 26.9317 0.552532C26.477 0.918447 26.2496 1.40267 26.2496 2.00521V2.12231ZM27.2097 1.97594C27.2097 1.60271 27.3394 1.30144 27.5989 1.07213C27.8584 0.840385 28.2365 0.724512 28.7332 0.724512C29.2274 0.724512 29.6043 0.840385 29.8638 1.07213C30.1233 1.30144 30.253 1.60271 30.253 1.97594V2.15158C30.253 2.52725 30.1233 2.83096 29.8638 3.06271C29.6068 3.29202 29.2299 3.40667 28.7332 3.40667C28.2365 3.40667 27.8584 3.29202 27.5989 3.06271C27.3394 2.83096 27.2097 2.52847 27.2097 2.15524V1.97594Z" fill="white"/>
<path d="M32.272 4.02141H35.0374C35.5217 4.02141 35.8924 3.92383 36.1494 3.72867C36.4064 3.53352 36.5349 3.2603 36.5349 2.90902C36.5349 2.6602 36.4558 2.46017 36.2977 2.30892C36.142 2.15524 35.9369 2.05522 35.6823 2.00887V1.9979C35.9097 1.93447 36.0852 1.83079 36.2087 1.68687C36.3348 1.5405 36.3978 1.35389 36.3978 1.12702C36.3978 0.790376 36.2754 0.536675 36.0308 0.365915C35.7861 0.195155 35.4117 0.109774 34.9076 0.109774H32.272V4.02141ZM33.2025 1.7198V0.757444H34.8149C35.0398 0.757444 35.2005 0.796475 35.2968 0.874537C35.3957 0.952599 35.4451 1.06725 35.4451 1.2185C35.4451 1.37706 35.3957 1.50025 35.2968 1.58807C35.2005 1.67589 35.0398 1.7198 34.8149 1.7198H33.2025ZM33.2025 3.37374V2.34552H34.9261C35.156 2.34552 35.324 2.39064 35.4303 2.4809C35.5365 2.57116 35.5897 2.69557 35.5897 2.85414C35.5897 3.01514 35.5365 3.14199 35.4303 3.23469C35.324 3.32739 35.156 3.37374 34.9261 3.37374H33.2025Z" fill="white"/>
<path d="M37.5902 4.02141H38.528L40.6928 1.53318C40.7546 1.46 40.8052 1.38926 40.8448 1.32095C40.8843 1.25265 40.9202 1.18191 40.9523 1.10872H40.9708C40.9683 1.18434 40.9646 1.26729 40.9597 1.35754C40.9572 1.4478 40.956 1.53074 40.956 1.60637V4.02141H41.8975V0.109774H40.9597L38.7949 2.59068C38.7331 2.66386 38.6824 2.7346 38.6429 2.80291C38.6058 2.87121 38.57 2.94196 38.5354 3.01514H38.5132C38.5156 2.93952 38.5193 2.85658 38.5243 2.76632C38.5292 2.67362 38.5317 2.58946 38.5317 2.51384V0.109774H37.5902V4.02141Z" fill="white"/>
<path d="M42.7378 0.81965H44.4318V4.02141H45.3733V0.81965H47.0674V0.109774H42.7378V0.81965Z" fill="white"/>
<path d="M48.8455 0.109774H47.9076V4.02141H50.4246C50.9337 4.02141 51.3229 3.90431 51.5922 3.67013C51.8641 3.43594 52 3.11272 52 2.70045C52 2.27355 51.8641 1.94667 51.5922 1.7198C51.3229 1.49049 50.9337 1.37584 50.4246 1.37584H48.8455V0.109774ZM50.306 2.05278C50.5778 2.05278 50.7706 2.11011 50.8842 2.22476C50.9979 2.33698 51.0547 2.4931 51.0547 2.69313C51.0547 2.90049 50.9979 3.06149 50.8842 3.17614C50.7706 3.2908 50.5778 3.34812 50.306 3.34812H48.8455V2.05278H50.306Z" fill="white"/>
</svg>
