<svg width="132" height="38" viewBox="0 0 132 38" fill="none" xmlns="http://www.w3.org/2000/svg">
<path d="M50.5962 30.1696H44.9163L43.5523 34.2324H41.1465L46.5264 19.2012H49.0259L54.4058 34.2324H51.959L50.5962 30.1696ZM45.5045 28.2949H50.0068L47.7873 21.7013H47.7252L45.5045 28.2949Z" fill="white"/>
<path d="M66.0247 28.753C66.0247 32.1586 64.2177 34.3466 61.4909 34.3466C60.8001 34.383 60.1131 34.2225 59.5086 33.8834C58.9041 33.5443 58.4064 33.0404 58.0726 32.4292H58.021V37.8573H55.791V23.2729H57.9496V25.0957H57.9906C58.3397 24.4875 58.8458 23.9861 59.4549 23.645C60.0641 23.3038 60.7535 23.1356 61.4499 23.1583C64.2071 23.1583 66.0247 25.3569 66.0247 28.753ZM63.7326 28.753C63.7326 26.5343 62.5959 25.0756 60.8616 25.0756C59.1577 25.0756 58.0117 26.565 58.0117 28.753C58.0117 30.9611 59.1577 32.4399 60.8616 32.4399C62.5959 32.4399 63.7326 30.9919 63.7326 28.753Z" fill="white"/>
<path d="M77.9817 28.753C77.9817 32.1586 76.1748 34.3466 73.4479 34.3466C72.7571 34.383 72.0702 34.2225 71.4656 33.8834C70.8611 33.5443 70.3634 33.0404 70.0297 32.4292H69.9781V37.8573H67.748V23.2729H69.9066V25.0957H69.9476C70.2967 24.4875 70.8028 23.9861 71.4119 23.645C72.0211 23.3038 72.7105 23.1356 73.4069 23.1583C76.1642 23.1583 77.9817 25.3569 77.9817 28.753ZM75.6896 28.753C75.6896 26.5343 74.5529 25.0756 72.8186 25.0756C71.1148 25.0756 69.9687 26.565 69.9687 28.753C69.9687 30.9611 71.1148 32.4399 72.8186 32.4399C74.553 32.4399 75.6896 30.9918 75.6896 28.753H75.6896Z" fill="white"/>
<path d="M85.8853 30.045C86.0506 31.5356 87.4861 32.5143 89.4477 32.5143C91.3273 32.5143 92.6796 31.5355 92.6796 30.1915C92.6796 29.0248 91.864 28.3262 89.9328 27.8474L88.0017 27.3782C85.2654 26.7115 83.9951 25.4206 83.9951 23.326C83.9951 20.7326 86.2357 18.9512 89.4172 18.9512C92.5659 18.9512 94.7245 20.7326 94.7972 23.326H92.546C92.4113 21.826 91.182 20.9205 89.3856 20.9205C87.5891 20.9205 86.3599 21.8366 86.3599 23.17C86.3599 24.2327 87.145 24.858 89.0657 25.3367L90.7074 25.7433C93.7647 26.4727 95.035 27.7115 95.035 29.9101C95.035 32.7222 92.8144 34.4835 89.2824 34.4835C85.9779 34.4835 83.7467 32.7636 83.6025 30.0449L85.8853 30.045Z" fill="white"/>
<path d="M99.8475 20.6816V23.2751H101.913V25.0565H99.8475V31.098C99.8475 32.0366 100.261 32.474 101.169 32.474C101.415 32.4697 101.659 32.4523 101.903 32.4219V34.1927C101.495 34.2696 101.08 34.3045 100.664 34.2967C98.4648 34.2967 97.607 33.4633 97.607 31.338V25.0565H96.0273V23.2751H97.6069V20.6816H99.8475Z" fill="white"/>
<path d="M103.109 28.7535C103.109 25.3054 105.123 23.1387 108.262 23.1387C111.412 23.1387 113.416 25.3054 113.416 28.7535C113.416 32.2111 111.422 34.3683 108.262 34.3683C105.103 34.3683 103.109 32.2111 103.109 28.7535ZM111.143 28.7535C111.143 26.3882 110.069 24.9922 108.262 24.9922C106.455 24.9922 105.382 26.3988 105.382 28.7535C105.382 31.1283 106.455 32.5137 108.262 32.5137C110.069 32.5137 111.143 31.1283 111.143 28.7535H111.143Z" fill="white"/>
<path d="M115.255 23.2728H117.382V25.1381H117.433C117.577 24.5556 117.916 24.0407 118.392 23.6801C118.867 23.3196 119.452 23.1352 120.047 23.1582C120.304 23.1572 120.56 23.1854 120.811 23.2421V25.3462C120.486 25.2462 120.148 25.2003 119.809 25.2102C119.485 25.197 119.162 25.2546 118.862 25.3791C118.562 25.5037 118.293 25.6922 118.072 25.9317C117.851 26.1712 117.684 26.4561 117.583 26.7668C117.482 27.0775 117.448 27.4066 117.485 27.7316V34.2318H115.255L115.255 23.2728Z" fill="white"/>
<path d="M131.093 31.0136C130.793 33.003 128.872 34.3683 126.415 34.3683C123.255 34.3683 121.293 32.2323 121.293 28.8055C121.293 25.3681 123.265 23.1387 126.321 23.1387C129.327 23.1387 131.217 25.2215 131.217 28.5443V29.315H123.544V29.4509C123.509 29.8542 123.559 30.2605 123.691 30.6429C123.823 31.0252 124.034 31.3747 124.311 31.6683C124.587 31.9619 124.922 32.1928 125.294 32.3457C125.666 32.4986 126.066 32.5699 126.467 32.555C126.994 32.6048 127.522 32.4817 127.975 32.204C128.427 31.9263 128.778 31.5088 128.976 31.0136L131.093 31.0136ZM123.555 27.7428H128.986C129.006 27.3802 128.952 27.0173 128.826 26.6769C128.7 26.3365 128.506 26.026 128.256 25.7648C128.006 25.5036 127.705 25.2975 127.372 25.1592C127.039 25.021 126.681 24.9536 126.321 24.9614C125.958 24.9592 125.598 25.0296 125.262 25.1685C124.926 25.3074 124.621 25.512 124.363 25.7706C124.106 26.0292 123.902 26.3366 123.763 26.6751C123.625 27.0136 123.554 27.3765 123.555 27.7428V27.7428Z" fill="white"/>
<path d="M43.4512 14.4375C43.6035 14.4766 43.7637 14.5059 43.9316 14.5254C44.1035 14.5449 44.2891 14.5547 44.4883 14.5547C45.1055 14.5547 45.6289 14.4023 46.0586 14.0977C46.4883 13.7969 46.8418 13.3574 47.1191 12.7793L50.5 5.73633H49.0293L47.207 9.67383C47.1367 9.82617 47.0703 9.98242 47.0078 10.1426C46.9453 10.3027 46.8906 10.4688 46.8438 10.6406H46.8145C46.7676 10.4688 46.7109 10.3027 46.6445 10.1426C46.582 9.98242 46.5137 9.82422 46.4395 9.66797L44.5996 5.73633H43.0293L46.0703 11.9473L46.1641 11.9531C45.8828 12.6055 45.6152 13.0078 45.3613 13.1602C45.1074 13.3164 44.7812 13.3945 44.3828 13.3945C44.2305 13.3945 44.0742 13.3848 43.9141 13.3652C43.7539 13.3457 43.6035 13.3203 43.4629 13.2891L43.4512 14.4375ZM51.2598 8.95898C51.2598 9.92773 51.6055 10.707 52.2969 11.2969C52.9922 11.8828 53.9316 12.1758 55.1152 12.1758C56.2285 12.1758 57.0781 11.9473 57.6641 11.4902C58.25 11.0293 58.543 10.5059 58.543 9.91992V9.86719H57.043V9.92578C57.0352 10.2539 56.8828 10.5215 56.5859 10.7285C56.293 10.9316 55.8008 11.0332 55.1094 11.0332C54.3125 11.0332 53.7246 10.8477 53.3457 10.4766C52.9668 10.1055 52.7773 9.61719 52.7773 9.01172V8.72461C52.7773 8.11914 52.9668 7.63086 53.3457 7.25977C53.7246 6.88867 54.3125 6.70312 55.1094 6.70312C55.8008 6.70312 56.293 6.80664 56.5859 7.01367C56.8828 7.2207 57.0352 7.48438 57.043 7.80469V7.86914H58.543V7.79883C58.5234 7.21289 58.2246 6.69336 57.6465 6.24023C57.0723 5.78711 56.2305 5.56055 55.1211 5.56055C53.9336 5.56055 52.9922 5.85547 52.2969 6.44531C51.6055 7.03125 51.2598 7.80664 51.2598 8.77148V8.95898ZM59.2559 6.87305H61.9336V12H63.4219V6.87305H66.0996V5.73633H59.2559V6.87305ZM67.0469 10.1602C67.0469 10.793 67.2949 11.2773 67.791 11.6133C68.291 11.9492 68.959 12.1172 69.7949 12.1172C70.5254 12.1172 71.1328 12.0234 71.6172 11.8359C72.1016 11.6484 72.4336 11.4258 72.6133 11.168C72.6289 11.3164 72.6641 11.4688 72.7188 11.625C72.7734 11.7812 72.832 11.9062 72.8945 12H74.3359V11.9062C74.2461 11.7422 74.1738 11.5469 74.1191 11.3203C74.0684 11.0938 74.043 10.8555 74.043 10.6055V7.68164C74.043 6.98633 73.7617 6.45898 73.1992 6.09961C72.6406 5.74023 71.8516 5.56055 70.832 5.56055C69.793 5.56055 68.9746 5.72852 68.377 6.06445C67.7832 6.39648 67.4863 6.86719 67.4863 7.47656V7.52344H68.957V7.4707C68.957 7.21289 69.1055 7.00781 69.4023 6.85547C69.7031 6.70312 70.1602 6.62695 70.7734 6.62695C71.4062 6.62695 71.8633 6.71289 72.1445 6.88477C72.4258 7.05664 72.5664 7.32227 72.5664 7.68164V8.10938H70.5625C69.4609 8.10938 68.5996 8.28516 67.9785 8.63672C67.3574 8.98828 67.0469 9.49609 67.0469 10.1602ZM68.5234 10.0605C68.5234 9.72852 68.7148 9.47266 69.0977 9.29297C69.4844 9.11328 70.0449 9.02344 70.7793 9.02344H72.5723V9.76172C72.5723 10.0938 72.3438 10.3926 71.8867 10.6582C71.4297 10.9238 70.8965 11.0566 70.2871 11.0566C69.6738 11.0566 69.2266 10.9746 68.9453 10.8105C68.6641 10.6465 68.5234 10.3965 68.5234 10.0605ZM76.0918 5.73633V12H77.5742V9.375H81.3594V12H82.8477V5.73633H81.3594V8.23828H77.5742V5.73633H76.0918ZM84.5215 8.95898C84.5215 9.92383 84.8809 10.7012 85.5996 11.291C86.3184 11.8809 87.2676 12.1758 88.4473 12.1758C89.627 12.1758 90.5762 11.8809 91.2949 11.291C92.0137 10.7012 92.373 9.92383 92.373 8.95898V8.77148C92.373 7.80664 92.0137 7.03125 91.2949 6.44531C90.5762 5.85547 89.627 5.56055 88.4473 5.56055C87.2676 5.56055 86.3184 5.85547 85.5996 6.44531C84.8809 7.03125 84.5215 7.80664 84.5215 8.77148V8.95898ZM86.0391 8.72461C86.0391 8.12695 86.2441 7.64453 86.6543 7.27734C87.0645 6.90625 87.6621 6.7207 88.4473 6.7207C89.2285 6.7207 89.8242 6.90625 90.2344 7.27734C90.6445 7.64453 90.8496 8.12695 90.8496 8.72461V9.00586C90.8496 9.60742 90.6445 10.0938 90.2344 10.4648C89.8281 10.832 89.2324 11.0156 88.4473 11.0156C87.6621 11.0156 87.0645 10.832 86.6543 10.4648C86.2441 10.0938 86.0391 9.60938 86.0391 9.01172V8.72461ZM94.041 12H98.4121C99.1777 12 99.7637 11.8438 100.17 11.5312C100.576 11.2188 100.779 10.7812 100.779 10.2188C100.779 9.82031 100.654 9.5 100.404 9.25781C100.158 9.01172 99.834 8.85156 99.4316 8.77734V8.75977C99.791 8.6582 100.068 8.49219 100.264 8.26172C100.463 8.02734 100.562 7.72852 100.562 7.36523C100.562 6.82617 100.369 6.41992 99.9824 6.14648C99.5957 5.87305 99.0039 5.73633 98.207 5.73633H94.041V12ZM95.5117 8.31445V6.77344H98.0605C98.416 6.77344 98.6699 6.83594 98.8223 6.96094C98.9785 7.08594 99.0566 7.26953 99.0566 7.51172C99.0566 7.76562 98.9785 7.96289 98.8223 8.10352C98.6699 8.24414 98.416 8.31445 98.0605 8.31445H95.5117ZM95.5117 10.9629V9.31641H98.2363C98.5996 9.31641 98.8652 9.38867 99.0332 9.5332C99.2012 9.67773 99.2852 9.87695 99.2852 10.1309C99.2852 10.3887 99.2012 10.5918 99.0332 10.7402C98.8652 10.8887 98.5996 10.9629 98.2363 10.9629H95.5117ZM102.447 12H103.93L107.352 8.01562C107.449 7.89844 107.529 7.78516 107.592 7.67578C107.654 7.56641 107.711 7.45312 107.762 7.33594H107.791C107.787 7.45703 107.781 7.58984 107.773 7.73438C107.77 7.87891 107.768 8.01172 107.768 8.13281V12H109.256V5.73633H107.773L104.352 9.70898C104.254 9.82617 104.174 9.93945 104.111 10.0488C104.053 10.1582 103.996 10.2715 103.941 10.3887H103.906C103.91 10.2676 103.916 10.1348 103.924 9.99023C103.932 9.8418 103.936 9.70703 103.936 9.58594V5.73633H102.447V12ZM110.584 6.87305H113.262V12H114.75V6.87305H117.428V5.73633H110.584V6.87305ZM120.238 5.73633H118.756V12H122.734C123.539 12 124.154 11.8125 124.58 11.4375C125.01 11.0625 125.225 10.5449 125.225 9.88477C125.225 9.20117 125.01 8.67773 124.58 8.31445C124.154 7.94727 123.539 7.76367 122.734 7.76367H120.238V5.73633ZM122.547 8.84766C122.977 8.84766 123.281 8.93945 123.461 9.12305C123.641 9.30273 123.73 9.55273 123.73 9.87305C123.73 10.2051 123.641 10.4629 123.461 10.6465C123.281 10.8301 122.977 10.9219 122.547 10.9219H120.238V8.84766H122.547Z" fill="white"/>
<path d="M24.2215 18.6137C24.2391 17.2721 24.602 15.9568 25.2765 14.79C25.9509 13.6232 26.915 12.6428 28.079 11.9402C27.3395 10.9032 26.364 10.0499 25.2299 9.44784C24.0959 8.84583 22.8344 8.51177 21.5459 8.47218C18.7971 8.18888 16.1324 10.0872 14.7317 10.0872C13.3039 10.0872 11.1473 8.50031 8.82497 8.54723C7.32284 8.59488 5.8589 9.02379 4.57578 9.79216C3.29266 10.5605 2.23412 11.6422 1.50331 12.9317C-1.66243 18.3135 0.698922 26.223 3.73144 30.5733C5.24867 32.7035 7.02187 35.083 9.34208 34.9986C11.6125 34.9061 12.4605 33.577 15.2012 33.577C17.9164 33.577 18.7119 34.9986 21.0792 34.9449C23.5155 34.9061 25.0505 32.8053 26.5145 30.6549C27.6046 29.137 28.4435 27.4595 29 25.6844C27.5846 25.0965 26.3767 24.1126 25.5269 22.8552C24.6772 21.5979 24.2232 20.1227 24.2215 18.6137Z" fill="white"/>
<path d="M19.7498 5.61039C21.0782 4.04457 21.7326 2.03197 21.5741 0C19.5447 0.2093 17.67 1.16171 16.3237 2.66745C15.6654 3.40305 15.1613 4.25882 14.84 5.18585C14.5188 6.11288 14.3868 7.09298 14.4516 8.07014C15.4667 8.0804 16.4709 7.86436 17.3886 7.43829C18.3064 7.01222 19.1137 6.38723 19.7498 5.61039Z" fill="white"/>
</svg>
