<svg width="19" height="23" viewBox="0 0 19 23" fill="none" xmlns="http://www.w3.org/2000/svg">
<path d="M15.8693 12.2322C15.8808 11.3506 16.1186 10.4862 16.5605 9.71946C17.0023 8.9527 17.6339 8.30848 18.3966 7.84673C17.9121 7.16531 17.273 6.60452 16.53 6.20892C15.7869 5.81331 14.9605 5.59378 14.1163 5.56777C12.3154 5.3816 10.5695 6.62908 9.65179 6.62908C8.71633 6.62908 7.30338 5.58625 5.78188 5.61708C4.79772 5.6484 3.83859 5.93025 2.99792 6.43518C2.15726 6.94011 1.46373 7.6509 0.984924 8.49829C-1.08918 12.0349 0.457914 17.2326 2.44473 20.0913C3.43878 21.4912 4.60054 23.0548 6.12067 22.9994C7.60822 22.9386 8.16378 22.0652 9.95938 22.0652C11.7383 22.0652 12.2595 22.9994 13.8105 22.9641C15.4067 22.9386 16.4124 21.5581 17.3716 20.145C18.0858 19.1475 18.6354 18.0451 19 16.8786C18.0726 16.4923 17.2813 15.8458 16.7245 15.0195C16.1678 14.1932 15.8704 13.2238 15.8693 12.2322Z" fill="white"/>
<path d="M12.9398 3.68683C13.8101 2.65786 14.2388 1.3353 14.135 0C12.8054 0.13754 11.5771 0.763407 10.6951 1.7529C10.2638 2.23629 9.93348 2.79865 9.72302 3.40784C9.51256 4.01703 9.42607 4.6611 9.4685 5.30323C10.1336 5.30998 10.7915 5.16801 11.3928 4.88802C11.9941 4.60803 12.523 4.19732 12.9398 3.68683Z" fill="white"/>
</svg>
