<svg width="28" height="28" viewBox="0 0 28 28" fill="none" xmlns="http://www.w3.org/2000/svg">
<g clip-path="url(#clip0_494_12316)">
<g clip-path="url(#clip1_494_12316)">
<path d="M-7 0H34.9181V28H-7V0Z" fill="#F5F5F5"/>
<path d="M21.3276 13.6724C21.3276 17.6967 18.0653 20.959 14.0411 20.959C10.0168 20.959 6.75451 17.6967 6.75451 13.6724C6.75451 9.6482 10.0168 6.3859 14.0411 6.3859C18.0653 6.3859 21.3276 9.6482 21.3276 13.6724Z" fill="#FF4B55"/>
<path d="M19.3218 13.0993C20.6375 14.2106 20.9542 16.3082 20.3042 17.3984C19.033 19.5307 16.7038 20.959 14.0411 20.959C10.0168 20.959 6.75451 17.6967 6.75451 13.6724C6.75451 12.2077 7.18669 10.844 7.93047 9.70169C6.59077 11.9941 7.5681 14.1848 9.45626 15.1052C11.1188 15.9156 12.8748 15.1079 14.0411 13.6724C15.6376 11.7076 17.737 11.7608 19.3218 13.0993Z" fill="#41479B"/>
<path d="M20.859 22.3816C20.6695 22.2584 20.6157 22.0048 20.7389 21.8153L21.9885 19.8934C22.1117 19.7038 22.3653 19.6501 22.5548 19.7733L22.8294 19.9518C23.0189 20.0751 23.0727 20.3286 22.9494 20.5182L21.6999 22.4401C21.5767 22.6296 21.3231 22.6834 21.1336 22.5601L20.859 22.3816Z" fill="#464655"/>
<path d="M22.8226 19.3615C22.633 19.2382 22.5793 18.9847 22.7025 18.7951L23.952 16.8732C24.0753 16.6837 24.3288 16.6299 24.5184 16.7532L24.7929 16.9317C24.9825 17.0549 25.0362 17.3085 24.913 17.498L23.6635 19.4199C23.5402 19.6095 23.2867 19.6632 23.0971 19.54L22.8226 19.3615Z" fill="#464655"/>
<path d="M22.3004 23.3188C22.1109 23.1955 22.0571 22.942 22.1804 22.7524L23.4299 20.8305C23.5531 20.641 23.8067 20.5872 23.9962 20.7105L24.2708 20.889C24.4603 21.0122 24.5141 21.2658 24.3909 21.4553L23.1413 23.3772C23.0181 23.5668 22.7645 23.6205 22.575 23.4973L22.3004 23.3188Z" fill="#464655"/>
<path d="M24.264 20.2986C24.0745 20.1754 24.0207 19.9218 24.1439 19.7323L25.3935 17.8104C25.5167 17.6208 25.7703 17.5671 25.9598 17.6903L26.2344 17.8688C26.4239 17.9921 26.4777 18.2456 26.3544 18.4352L25.1049 20.3571C24.9817 20.5466 24.7281 20.6004 24.5386 20.4771L24.264 20.2986Z" fill="#464655"/>
<path d="M23.7419 24.2559C23.5523 24.1327 23.4986 23.8791 23.6218 23.6896L24.8713 21.7677C24.9946 21.5781 25.2481 21.5244 25.4377 21.6476L25.7122 21.8261C25.9018 21.9494 25.9555 22.2029 25.8323 22.3925L24.5828 24.3144C24.4595 24.5039 24.206 24.5577 24.0164 24.4344L23.7419 24.2559Z" fill="#464655"/>
<path d="M25.7054 21.2358C25.5159 21.1126 25.4621 20.859 25.5854 20.6695L26.8349 18.7475C26.9581 18.558 27.2117 18.5042 27.4012 18.6275L27.6758 18.806C27.8653 18.9292 27.9191 19.1828 27.7959 19.3723L26.5463 21.2942C26.4231 21.4838 26.1695 21.5375 25.98 21.4143L25.7054 21.2358Z" fill="#464655"/>
<path d="M0.273521 8.65063C0.0839781 8.5274 0.0302221 8.27384 0.153454 8.0843L3.36655 3.14224C3.48978 2.95269 3.74333 2.89894 3.93288 3.02217L4.20744 3.20067C4.39698 3.32391 4.45073 3.57746 4.3275 3.76701L1.11441 8.70907C0.991179 8.89861 0.737624 8.95236 0.54808 8.82913L0.273521 8.65063Z" fill="#464655"/>
<path d="M1.71496 9.58778C1.52541 9.46455 1.47166 9.21099 1.59489 9.02145L4.80798 4.07939C4.93121 3.88985 5.18477 3.83609 5.37431 3.95932L5.64887 4.13783C5.83841 4.26106 5.89217 4.51461 5.76894 4.70416L2.55584 9.64622C2.43261 9.83576 2.17906 9.88952 1.98951 9.76629L1.71496 9.58778Z" fill="#464655"/>
<path d="M3.15639 10.5249C2.96685 10.4017 2.91309 10.1481 3.03632 9.9586L6.24941 5.01654C6.37265 4.827 6.6262 4.77324 6.81574 4.89647L7.0903 5.07498C7.27985 5.19821 7.3336 5.45177 7.21037 5.64131L3.99728 10.5834C3.87405 10.7729 3.62049 10.8267 3.43095 10.7034L3.15639 10.5249Z" fill="#464655"/>
<path d="M24.6098 10.7005C24.4232 10.8281 24.1685 10.7803 24.0409 10.5936L22.7472 8.70115C22.6196 8.51451 22.6675 8.25978 22.8541 8.13219L23.1245 7.94738C23.3111 7.81979 23.5658 7.86767 23.6934 8.05431L24.9871 9.94678C25.1147 10.1334 25.0668 10.3881 24.8802 10.5157L24.6098 10.7005Z" fill="#464655"/>
<path d="M22.5769 7.72666C22.3902 7.85425 22.1355 7.80638 22.0079 7.61974L20.7142 5.72727C20.5866 5.54063 20.6345 5.2859 20.8212 5.15831L21.0915 4.9735C21.2782 4.84591 21.5329 4.89378 21.6605 5.08042L22.9542 6.97289C23.0817 7.15953 23.0339 7.41426 22.8472 7.54185L22.5769 7.72666Z" fill="#464655"/>
<path d="M26.0292 9.73028C25.8425 9.85787 25.5878 9.80999 25.4602 9.62335L22.1336 4.757C22.006 4.57036 22.0539 4.31563 22.2405 4.18804L22.5109 4.00323C22.6975 3.87564 22.9522 3.92351 23.0798 4.11015L26.4065 8.97651C26.534 9.16315 26.4862 9.41788 26.2995 9.54547L26.0292 9.73028Z" fill="#464655"/>
<path d="M27.4485 8.76001C27.2619 8.8876 27.0072 8.83973 26.8796 8.65309L25.5859 6.76061C25.4583 6.57397 25.5062 6.31924 25.6928 6.19166L25.9632 6.00684C26.1498 5.87926 26.4045 5.92713 26.5321 6.11377L27.8258 8.00624C27.9534 8.19288 27.9055 8.44761 27.7189 8.5752L27.4485 8.76001Z" fill="#464655"/>
<path d="M25.4156 5.78613C25.229 5.91371 24.9742 5.86584 24.8466 5.6792L23.5529 3.78673C23.4254 3.60009 23.4732 3.34536 23.6599 3.21777L23.9302 3.03296C24.1169 2.90537 24.3716 2.95324 24.4992 3.13988L25.7929 5.03236C25.9205 5.219 25.8726 5.47373 25.6859 5.60131L25.4156 5.78613Z" fill="#464655"/>
<path d="M4.01908 24.4237C3.83244 24.5512 3.57771 24.5034 3.45012 24.3167L0.123488 19.4504C-0.00409848 19.2637 0.0437735 19.009 0.230413 18.8814L0.500767 18.6966C0.687407 18.569 0.942137 18.6169 1.06972 18.8035L4.39636 23.6699C4.52395 23.8565 4.47607 24.1113 4.28943 24.2388L4.01908 24.4237Z" fill="#464655"/>
<path d="M5.43844 23.5353C5.2518 23.6629 4.99707 23.615 4.86948 23.4283L3.57579 21.5359C3.4482 21.3492 3.49607 21.0945 3.68271 20.9669L3.95307 20.7821C4.13971 20.6545 4.39444 20.7024 4.52202 20.889L5.81572 22.7815C5.9433 22.9681 5.89543 23.2229 5.70879 23.3505L5.43844 23.5353Z" fill="#464655"/>
<path d="M3.40549 20.5614C3.21886 20.689 2.96412 20.6411 2.83654 20.4545L1.54284 18.562C1.41526 18.3753 1.46313 18.1206 1.64977 17.993L1.92012 17.8082C2.10676 17.6806 2.36149 17.7285 2.48908 17.9151L3.78277 19.8076C3.91036 19.9943 3.86249 20.249 3.67585 20.3766L3.40549 20.5614Z" fill="#464655"/>
<path d="M6.85779 22.4831C6.67115 22.6107 6.41642 22.5628 6.28883 22.3762L2.9622 17.5098C2.83461 17.3232 2.88248 17.0685 3.06912 16.9409L3.33947 16.7561C3.52611 16.6285 3.78085 16.6764 3.90843 16.863L7.23507 21.7294C7.36265 21.916 7.31478 22.1707 7.12814 22.2983L6.85779 22.4831Z" fill="#464655"/>
</g>
</g>
<rect x="0.5" y="0.5" width="27" height="27" rx="13.5" stroke="white" stroke-opacity="0.1"/>
<defs>
<clipPath id="clip0_494_12316">
<rect width="28" height="28" rx="14" fill="white"/>
</clipPath>
<clipPath id="clip1_494_12316">
<rect width="42" height="28" fill="white" transform="translate(-7)"/>
</clipPath>
</defs>
</svg>
